<?xml version="1.0"?>
<svg xmlns="http://www.w3.org/2000/svg" xmlns:xlink="http://www.w3.org/1999/xlink" xmlns:svgjs="http://svgjs.com/svgjs" version="1.1" width="512" height="512" x="0" y="0" viewBox="0 0 512 512" style="enable-background:new 0 0 512 512" xml:space="preserve" class=""><g><path xmlns="http://www.w3.org/2000/svg" d="m47.83838 461.13379 164.32812 34.23437a29.75846 29.75846 0 0 0 35.83008-29.13086v-10.24316h40a32.03635 32.03635 0 0 0 32-32v-32h-16v32a16.01833 16.01833 0 0 1 -16 16h-40v-109.38184a40.00611 40.00611 0 0 0 -32.71679-39.33105l-171.96729-31.8457a13.83646 13.83646 0 0 1 2.52-27.44141h98.16406v-16h-98.16404a29.87017 29.87017 0 0 0 -29.83594 29.83691v176.14356a40.16717 40.16717 0 0 0 31.8418 39.15918zm-15.8418-188.86426a29.80992 29.80992 0 0 0 8.40332 2.89847l171.96631 31.8457a24.00315 24.00315 0 0 1 19.63037 23.59863v135.625a13.75807 13.75807 0 0 1 -16.56347 13.46778l-164.33106-34.23538a24.0997 24.0997 0 0 1 -19.10547-23.49512z" fill="#ffffff" data-original="#000000" style="" class=""/><path xmlns="http://www.w3.org/2000/svg" d="m491.05811 16.60352a7.99914 7.99914 0 0 0 -8.71827 1.73339l-18.34326 18.34375-18.34326-18.34375a8.00182 8.00182 0 0 0 -11.31348 0l-18.34326 18.34375-18.34326-18.34375a8.00182 8.00182 0 0 0 -11.31348 0l-18.34326 18.34375-18.34326-18.34375a8.00182 8.00182 0 0 0 -11.31348 0l-18.34326 18.34375-18.34326-18.34375a8.00038 8.00038 0 0 0 -13.65674 5.65723v64h-88a40.04552 40.04552 0 0 0 -40 40v144h16v-144a24 24 0 0 1 48 0v112a40.04552 40.04552 0 0 0 40 40h88v76.68652l-16 16-18.34326-18.34375a8.00182 8.00182 0 0 0 -11.31348 0l-18.34326 18.34375-18.34326-18.34375-11.31348 11.31446 24 24a8.00182 8.00182 0 0 0 11.31348 0l18.34326-18.34375 18.34326 18.34375a8.00063 8.00063 0 0 0 11.31348 0l24-24a8.00076 8.00076 0 0 0 2.34326-5.65723v-80h88a40.04552 40.04552 0 0 0 40-40v-216a8 8 0 0 0 -4.93847-7.39062zm-227.06153 247.39062a24.02719 24.02719 0 0 1 -24-24v-112a39.79015 39.79015 0 0 0 -8.022-24h56.022v136a24.02718 24.02718 0 0 1 -24 24zm216-24a24.02718 24.02718 0 0 1 -24 24h-160.019a39.79461 39.79461 0 0 0 8.019-24v-196.68652l10.34326 10.34375a8.00182 8.00182 0 0 0 11.31348 0l18.34326-18.34375 18.34326 18.34375a8.00182 8.00182 0 0 0 11.31348 0l18.34326-18.34375 18.34326 18.34375a8.00182 8.00182 0 0 0 11.31348 0l18.34326-18.34375 18.34326 18.34375a8.00182 8.00182 0 0 0 11.31348 0l10.34326-10.34375z" fill="#ffffff" data-original="#000000" style="" class=""/><path xmlns="http://www.w3.org/2000/svg" d="m391.99658 111.99414a24 24 0 1 0 -24-24 24.02718 24.02718 0 0 0 24 24zm0-32a8 8 0 1 1 -8 8 8.00917 8.00917 0 0 1 8-8z" fill="#ffffff" data-original="#000000" style="" class=""/><path xmlns="http://www.w3.org/2000/svg" d="m343.997 127.994h40v16h-40z" fill="#ffffff" data-original="#000000" style="" class=""/><path xmlns="http://www.w3.org/2000/svg" d="m399.997 127.994h40v16h-40z" fill="#ffffff" data-original="#000000" style="" class=""/><path xmlns="http://www.w3.org/2000/svg" d="m359.997 159.994h64v16h-64z" fill="#ffffff" data-original="#000000" style="" class=""/><path xmlns="http://www.w3.org/2000/svg" d="m319.997 191.994h24v16h-24z" fill="#ffffff" data-original="#000000" style="" class=""/><path xmlns="http://www.w3.org/2000/svg" d="m319.997 223.994h48v16h-48z" fill="#ffffff" data-original="#000000" style="" class=""/><path xmlns="http://www.w3.org/2000/svg" d="m359.997 191.994h16v16h-16z" fill="#ffffff" data-original="#000000" style="" class=""/><path xmlns="http://www.w3.org/2000/svg" d="m423.997 191.994h40v16h-40z" fill="#ffffff" data-original="#000000" style="" class=""/><path xmlns="http://www.w3.org/2000/svg" d="m439.997 223.994h24v16h-24z" fill="#ffffff" data-original="#000000" style="" class=""/></g></svg>
